<svg width="1563" height="1072" viewBox="0 0 1563 1072" fill="none" xmlns="http://www.w3.org/2000/svg">
<g clip-path="url(#clip0_17_122)">
<path d="M944.3 785.9L943.4 785.5L945.5 781L946.4 781.4L944.3 785.9ZM907.2 765.5L906.3 765L909 760.8L909.8 761.3L907.2 765.5ZM873.2 740.3L872.4 739.6L875.7 735.8L876.5 736.4L873.2 740.3ZM843 710.8L842.3 710L846 706.7L846.7 707.4L843 710.8ZM817.1 677.4L816.5 676.6L820.7 673.8L821.3 674.6L817.1 677.4ZM795.9 640.7L795.5 639.8L800 637.6L800.4 638.5L795.9 640.7ZM779.9 601.6L779.6 600.6L784.4 599.1L784.7 600L779.9 601.6ZM769.5 560.6L769.3 559.6L774.2 558.7L774.4 559.7L769.5 560.6ZM764.8 518.5V517.5L769.8 517.3V518.3L764.8 518.5Z" fill="#00AAB8"/>
<path d="M1114.4 811.7L1113.8 806.7L1114.8 806.6L1115.5 811.6L1114.4 811.7ZM1155.9 803.4L1154.6 798.6L1155.6 798.3L1156.9 803.1L1155.9 803.4ZM1195.8 789.5L1193.8 784.9L1194.7 784.5L1196.7 789.1L1195.8 789.5ZM1233.4 770.2L1230.8 765.9L1231.7 765.4L1234.3 769.7L1233.4 770.2ZM1268.1 746L1265 742.1L1265.8 741.5L1269 745.4L1268.1 746ZM1299.2 717.3L1295.6 713.9L1296.3 713.2L1299.9 716.6L1299.2 717.3ZM1326.1 684.6L1322 681.7L1322.6 680.9L1326.7 683.8L1326.1 684.6ZM1348.3 648.6L1343.9 646.3L1344.4 645.4L1348.8 647.7L1348.3 648.6ZM1365.3 609.9L1360.6 608.2L1360.9 607.3L1365.6 609L1365.3 609.9ZM1377 569.2L1372.1 568.2L1372.3 567.2L1377.2 568.2L1377 569.2ZM1382.9 527.3L1377.9 526.9L1378 525.9L1383 526.2L1382.9 527.3ZM1378.1 485.3L1378 484.3L1383 484L1383.1 485L1378.1 485.3ZM1372.6 444.1L1372.4 443.1L1377.3 442.1L1377.5 443.1L1372.6 444.1ZM1361.6 404L1361.3 403.1L1366 401.4L1366.3 402.3L1361.6 404ZM1345.2 365.7L1344.7 364.8L1349.1 362.5L1349.6 363.4L1345.2 365.7ZM1323.7 330.1L1323.1 329.3L1327.2 326.4L1327.8 327.2L1323.7 330.1ZM1297.6 297.7L1296.9 297L1300.6 293.6L1301.3 294.3L1297.6 297.7ZM1267.3 269.2L1266.5 268.6L1269.7 264.7L1270.5 265.3L1267.3 269.2ZM1233.4 245L1232.5 244.5L1235.1 240.2L1236 240.7L1233.4 245ZM1196.5 225.7L1195.6 225.3L1197.6 220.7L1198.5 221.1L1196.5 225.7ZM1157.3 211.6L1156.3 211.3L1157.6 206.5L1158.6 206.8L1157.3 211.6ZM1116.6 203.1L1115.6 203L1116.3 198L1117.3 198.1L1116.6 203.1ZM1075.1 200.1H1074.1V195.1H1075.1V200.1Z" fill="#00AAB8"/>
<path d="M836 504.7H831V503.7H836V504.7ZM839.6 463.4L834.7 462.5L834.9 461.5L839.8 462.4L839.6 463.4ZM850.3 423.3L845.6 421.6L846 420.6L850.7 422.3L850.3 423.3ZM867.9 385.7L863.6 383.2L864.1 382.3L868.4 384.8L867.9 385.7ZM891.7 351.7L887.9 348.5L888.5 347.7L892.3 350.9L891.7 351.7ZM921.1 322.3L917.9 318.5L918.7 317.9L921.9 321.7L921.1 322.3ZM955.1 298.5L952.6 294.2L953.5 293.7L956 298L955.1 298.5ZM992.6 281L990.9 276.3L991.9 276L993.6 280.7L992.6 281ZM1032.7 270.2L1031.8 265.3L1032.8 265.1L1033.6 270L1032.7 270.2ZM1074.1 266.7V261.7V266.7Z" fill="#00AAB8"/>
<path d="M1074.1 747.8V745.4L1073.6 742.9H1074.1V745.4L1074.6 747.9L1074.1 745.5V747.8ZM1115.3 744.3L1114.5 739.4L1115.5 739.2L1116.4 744.1L1115.3 744.3ZM1156.3 733.5L1154.6 728.8L1155.5 728.5L1157.2 733.2L1156.3 733.5ZM1194.7 715.7L1192.2 711.4L1193.1 710.9L1195.6 715.2L1194.7 715.7ZM1229.5 691.6L1226.3 687.8L1227.1 687.2L1230.3 691L1229.5 691.6ZM1259.6 661.7L1255.8 658.5L1256.4 657.7L1260.2 660.9L1259.6 661.7ZM1284.1 627.1L1279.8 624.6L1280.3 623.7L1284.6 626.2L1284.1 627.1ZM1302.2 588.8L1297.5 587.1L1297.8 586.2L1302.5 587.9L1302.2 588.8ZM1313.3 547.9L1308.4 547L1308.6 546L1313.5 546.9L1313.3 547.9ZM1317.1 505.7H1312.1V504.7H1317.1V505.7Z" fill="#00AAB8"/>
<path d="M1074.1 747.8H1073.1V742.8H1074.1V747.8ZM1031.9 744.1L1030.9 743.9L1031.8 739L1032.8 739.2L1031.9 744.1ZM990.9 733.2L989.9 732.8L991.6 728.1L992.5 728.4L990.9 733.2ZM952.5 715.2L951.6 714.7L954.1 710.4L955 710.9L952.5 715.2ZM917.8 690.9L917 690.3L920.2 686.5L921 687.1L917.8 690.9ZM887.9 660.9L887.3 660.1L891.1 656.9L891.7 657.7L887.9 660.9ZM863.6 626.2L863.1 625.3L867.4 622.8L867.9 623.7L863.6 626.2ZM845.6 587.9L845.3 586.9L850 585.2L850.3 586.1L845.6 587.9ZM834.7 546.9L834.5 545.9L839.4 545.1L839.6 546.1L834.7 546.9ZM831 504.7H836H831Z" fill="#F8CD61"/>
<path d="M1317.1 504.7H1312.1H1317.1ZM1308.7 464.3L1308.5 463.3L1313.4 462.4L1313.6 463.4L1308.7 464.3ZM1298.2 424.2L1297.9 423.3L1302.6 421.6L1302.9 422.6L1298.2 424.2ZM1280.8 386.5L1280.3 385.6L1284.6 383.1L1285.1 384L1280.8 386.5ZM1257.1 352.5L1256.5 351.7L1260.3 348.5L1260.9 349.3L1257.1 352.5ZM1227.9 323L1227.1 322.4L1230.3 318.6L1231.1 319.2L1227.9 323ZM1194 299L1193.1 298.5L1195.6 294.2L1196.5 294.7L1194 299ZM1156.4 281.3L1155.5 281L1157.2 276.3L1158.2 276.7L1156.4 281.3ZM1116.4 270.4L1115.4 270.2L1116.3 265.3L1117.3 265.5L1116.4 270.4ZM1075.1 266.7H1074.1V261.7H1075.1V266.7Z" fill="#F8CD61"/>
<path d="M1078.4 659.2L1078.3 655.2H1079.3L1079.4 659.2H1078.4ZM1058.2 658.5L1057.2 658.4L1057.6 654.4L1058.6 654.5L1058.2 658.5ZM1099.5 657.2L1098.8 653.3L1099.8 653.1L1100.5 657L1099.5 657.2ZM1037.2 654.9L1036.2 654.7L1037.2 650.8L1038.2 651L1037.2 654.9ZM1120.2 652.3L1119 648.5L1119.9 648.2L1121.1 652L1120.2 652.3ZM1017 648.4L1016.1 648L1017.6 644.3L1018.5 644.7L1017 648.4ZM1140 644.6L1138.3 641L1139.2 640.6L1140.9 644.2L1140 644.6ZM997.8 639.2L996.9 638.7L998.9 635.2L999.8 635.7L997.8 639.2ZM1158.6 634.2L1156.4 630.9L1157.2 630.4L1159.4 633.7L1158.6 634.2ZM980.1 627.4L979.3 626.8L981.8 623.6L982.6 624.2L980.1 627.4ZM1175.5 621.4L1172.9 618.4L1173.6 617.7L1176.2 620.7L1175.5 621.4ZM964.1 613.4L963.4 612.7L966.3 609.9L967 610.6L964.1 613.4ZM1190.5 606.4L1187.5 603.8L1188.1 603.1L1191.1 605.7L1190.5 606.4ZM950.3 597.3L949.7 596.5L952.9 594.1L953.5 594.9L950.3 597.3ZM1203.4 589.4L1200.1 587.2L1200.6 586.4L1204 588.6L1203.4 589.4ZM938.7 579.4L938.2 578.5L941.7 576.6L942.2 577.5L938.7 579.4ZM1213.8 570.9L1210.2 569.2L1210.6 568.3L1214.2 570L1213.8 570.9ZM929.8 560.2L929.4 559.3L933.1 557.9L933.5 558.8L929.8 560.2ZM1221.6 551.1L1217.8 549.9L1218.1 548.9L1221.9 550.1L1221.6 551.1ZM923.5 539.9L923.3 538.9L927.2 538L927.4 539L923.5 539.9ZM1226.5 530.4L1222.6 529.7L1222.8 528.7L1226.7 529.3L1226.5 530.4ZM920.2 518.9L920.1 517.9L924.1 517.6L924.2 518.6L920.2 518.9ZM1228.6 509.3L1224.6 509.2V508.2L1228.6 508.3V509.3ZM923.5 504.7H919.5V503.7H923.5V504.7ZM1223.8 488.5L1223.7 487.5L1227.7 487L1227.8 488L1223.8 488.5ZM924.9 484.1L920.9 483.6L921 482.6L925 483.2L924.9 484.1ZM1220.2 468.1L1220 467.1L1223.9 466.1L1224.1 467.1L1220.2 468.1ZM929.1 463.8L925.3 462.7L925.6 461.7L929.4 462.8L929.1 463.8ZM1213.8 448.4L1213.4 447.5L1217.1 446L1217.5 446.9L1213.8 448.4ZM936.1 444.3L932.4 442.7L932.8 441.8L936.5 443.4L936.1 444.3ZM1204.7 429.8L1204.2 428.9L1207.7 426.9L1208.2 427.8L1204.7 429.8ZM945.7 425.9L942.3 423.8L942.8 422.9L946.2 425L945.7 425.9ZM1193.2 412.6L1192.6 411.8L1195.7 409.3L1196.3 410.1L1193.2 412.6ZM957.8 409.1L954.7 406.6L955.3 405.8L958.4 408.4L957.8 409.1ZM1179.4 397.1L1178.7 396.4L1181.5 393.5L1182.2 394.2L1179.4 397.1ZM972 394L969.3 391.1L970 390.4L972.7 393.4L972 394ZM1163.7 383.7L1162.9 383.1L1165.3 379.9L1166.1 380.5L1163.7 383.7ZM988.1 381.1L985.8 377.8C986.1 377.6 986.4 377.4 986.6 377.2L988.9 380.5C988.7 380.7 988.4 380.9 988.1 381.1ZM1146.2 372.5L1145.3 372L1147.2 368.5L1148.1 369L1146.2 372.5ZM1005.9 370.4L1004.1 366.8L1005 366.3L1006.8 369.9L1005.9 370.4ZM1127.4 363.9L1126.5 363.6L1127.9 359.8L1128.9 360.2L1127.4 363.9ZM1024.9 362.4L1023.6 358.6L1024.6 358.3L1025.9 362.1L1024.9 362.4ZM1107.6 357.9L1106.6 357.7L1107.5 353.8L1108.5 354L1107.6 357.9ZM1044.9 357L1044.1 353.1L1045.1 352.9L1045.8 356.8L1044.9 357ZM1087.1 354.7L1086.1 354.6L1086.4 350.6L1087.4 350.7L1087.1 354.7ZM1065.5 354.4L1065.3 350.4L1066.3 350.3L1066.5 354.3L1065.5 354.4Z" fill="#00AAB8"/>
<path d="M1251.5 993.7L1250.6 993.2L1291.9 927.3L1228.6 690.4L1131.7 604.5L1132.4 603.8L1229.5 689.9V690L1293 927.4L1292.9 927.6L1251.5 993.7Z" fill="#00AAB8"/>
<path d="M1038.7 322.5L990.5 278.8V278.6L995 37.1001H996L991.5 278.4L1039.4 321.7L1038.7 322.5Z" fill="#00AAB8"/>
<path d="M1093.9 453.9L990.6 275L991 274.7L1325.7 45.7002H1325.9L1535.2 101.7L1534.9 102.6L1325.9 46.7002L991.9 275.3L1094.8 453.4L1093.9 453.9Z" fill="#006B93"/>
<path d="M1284.2 363.716L1274.24 357.966L1268.49 367.925L1278.45 373.675L1284.2 363.716Z" fill="#006B93"/>
<path d="M1206.02 220.54L1196.54 215.066L1191.07 224.546L1200.55 230.02L1206.02 220.54Z" fill="#00AAB8"/>
<path d="M865.8 290.9L850.3 281.9L859.3 266.4L874.8 275.4L865.8 290.9ZM851.6 281.5L865.4 289.5L873.4 275.7L859.6 267.7L851.6 281.5Z" fill="#006B93"/>
<path d="M1318.33 265.382L1322.35 272.334L1315.4 276.348L1311.38 269.396L1318.33 265.382Z" fill="#006B93"/>
<path d="M914.196 687.099L913.911 681.124L907.936 681.409L908.221 687.384L914.196 687.099Z" fill="#006B93"/>
<path d="M861.688 793.881L860.881 777L844 777.806L844.806 794.688L861.688 793.881Z" fill="#00AAB8"/>
<path d="M897.312 596.288L897.024 602.312L891 602.025L891.288 596L897.312 596.288Z" fill="#00AAB8"/>
<path d="M775.063 666.432L766.323 652.836L752.727 661.575L761.466 675.172L775.063 666.432Z" fill="#006B93"/>
<path d="M1261.3 812.5L1261.1 811.9L1229 692.8L1229.2 692.6L1377 530L1377.8 530.7L1230.1 693.1L1261.9 811.1L1480.2 708.4L1480.7 709.3L1261.3 812.5Z" fill="#006B93"/>
<path d="M1377.75 530.061L1376.88 530.561L1479.93 709.043L1480.8 708.543L1377.75 530.061Z" fill="#F8CD61"/>
<path d="M1456.9 1071.1L1456.2 1066.1L1457.2 1066L1457.9 1070.9L1456.9 1071.1ZM1415.2 1069.7L1414.2 1069.5L1415.3 1064.6L1416.3 1064.8L1415.2 1069.7ZM1497.4 1057.9L1495 1053.5L1495.9 1053L1498.3 1057.4L1497.4 1057.9ZM1375.6 1053.9L1374.7 1053.4L1377.4 1049.2L1378.2 1049.7L1375.6 1053.9ZM1531 1031.6L1527.3 1028.3L1528 1027.6L1531.7 1030.9L1531 1031.6ZM1343.9 1025.4C1343.7 1025.1 1343.5 1024.9 1343.3 1024.6L1347.3 1021.6L1347.9 1022.4L1343.9 1025.4ZM1553.5 995.4L1548.9 993.5L1549.3 992.6L1554 994.4L1553.5 995.4ZM1323.9 987.7L1323.6 986.7L1328.4 985.2L1328.7 986.1L1323.9 987.7ZM1562.1 953.6L1557.1 953.5V952.5L1562.1 952.6V953.6ZM1323 950.2H1318V949.2H1323V950.2ZM1551.1 913L1550.8 912.1L1555.5 910.5L1555.8 911.5L1551.1 913ZM1330.1 909.9L1325.4 908.2C1325.5 907.9 1325.6 907.6 1325.8 907.2L1330.5 909C1330.4 909.3 1330.3 909.6 1330.1 909.9ZM1531.5 877.1L1530.9 876.3L1534.8 873.1L1535.4 873.9L1531.5 877.1ZM1350.7 874.6L1346.9 871.4L1347.6 870.6L1351.4 873.9L1350.7 874.6ZM1500.7 850.1C1500.4 849.9 1500.1 849.8 1499.9 849.6L1502.5 845.3C1502.8 845.5 1503.1 845.7 1503.4 845.8L1500.7 850.1ZM1382.2 848.4L1379.7 844.1L1380.6 843.6L1383 848L1382.2 848.4ZM1462.6 835.3L1461.6 835.1L1462.5 830.2L1463.5 830.4L1462.6 835.3ZM1420.7 834.7L1419.9 829.8L1420.9 829.6L1421.7 834.5L1420.7 834.7Z" fill="#00AAB8"/>
<path d="M1446.2 1011.3L1445.8 1007.3C1446.1 1007.3 1446.4 1007.2 1446.8 1007.2L1447.3 1011.2C1446.9 1011.2 1446.6 1011.2 1446.2 1011.3ZM1425.7 1009.9C1425.4 1009.8 1425 1009.7 1424.7 1009.7L1425.7 1005.8C1426 1005.9 1426.3 1006 1426.6 1006L1425.7 1009.9ZM1467 1005.4L1465.2 1001.8C1465.5 1001.7 1465.8 1001.5 1466.1 1001.4L1467.9 1005C1467.6 1005.1 1467.3 1005.2 1467 1005.4ZM1405.9 1001.2C1405.6 1001 1405.3 1000.8 1405 1000.6L1407.3 997.3C1407.6 997.5 1407.8 997.7 1408.1 997.8L1405.9 1001.2ZM1484.4 992.6L1481.5 989.8C1481.7 989.6 1481.9 989.3 1482.2 989.1L1485.1 991.8C1484.9 992.1 1484.7 992.4 1484.4 992.6ZM1390.4 986.3C1390.2 986 1390 985.7 1389.8 985.5L1393.1 983.2C1393.3 983.5 1393.5 983.7 1393.7 984L1390.4 986.3ZM1496.4 974.7L1492.7 973.1C1492.8 972.8 1493 972.5 1493.1 972.2L1496.8 973.7C1496.7 974 1496.5 974.4 1496.4 974.7ZM1381 966.8C1380.9 966.5 1380.8 966.1 1380.7 965.8L1384.6 964.8C1384.7 965.1 1384.8 965.4 1384.9 965.7L1381 966.8ZM1501.4 953.7L1497.4 953.5C1497.4 953.2 1497.4 952.9 1497.4 952.5L1501.4 952.7C1501.4 953 1501.4 953.3 1501.4 953.7ZM1382.7 950.2H1378.7C1378.7 949.9 1378.7 949.5 1378.7 949.2L1382.7 949.3C1382.7 949.5 1382.7 949.9 1382.7 950.2ZM1495 933.4C1494.9 933.1 1494.8 932.8 1494.7 932.5L1498.5 931.3C1498.6 931.6 1498.7 932 1498.8 932.3L1495 933.4ZM1386.2 930.3L1382.4 928.9C1382.5 928.6 1382.6 928.3 1382.8 927.9L1386.5 929.3C1386.4 929.7 1386.3 930 1386.2 930.3ZM1485.7 915.4C1485.5 915.1 1485.3 914.9 1485.1 914.6L1488.2 912.1C1488.4 912.4 1488.6 912.6 1488.8 912.9L1485.7 915.4ZM1396.4 912.9L1393.4 910.3C1393.6 910 1393.9 909.8 1394.1 909.5L1397.1 912.2C1396.9 912.4 1396.6 912.7 1396.4 912.9ZM1470.9 901.8C1470.6 901.6 1470.4 901.5 1470.1 901.3L1472.2 897.9C1472.5 898.1 1472.8 898.3 1473.1 898.4L1470.9 901.8ZM1412 900.1L1410 896.6C1410.3 896.4 1410.6 896.3 1410.9 896.1L1412.8 899.6C1412.6 899.8 1412.3 900 1412 900.1ZM1452.2 894.1C1451.9 894 1451.6 894 1451.3 893.9L1452.1 890C1452.4 890.1 1452.8 890.1 1453.1 890.2L1452.2 894.1ZM1431.1 893.5L1430.5 889.5C1430.8 889.4 1431.2 889.4 1431.5 889.3L1432.1 893.3C1431.7 893.4 1431.4 893.5 1431.1 893.5Z" fill="#00AAB8"/>
<path d="M1231.5 689.522L1228.12 687.572L1226.17 690.949L1229.55 692.899L1231.5 689.522Z" fill="#006B93"/>
<path d="M1245.67 762.062L1251.13 758.912L1247.98 753.456L1242.52 756.606L1245.67 762.062Z" fill="#006B93"/>
<path d="M1290.4 935.192L1300.36 929.442L1294.61 919.483L1284.65 925.233L1290.4 935.192Z" fill="#00AAB8"/>
<path d="M1464.1 694.1C1461.8 694.1 1231.1 690.6 1228.9 690.7V690.2L1228.6 689.8C1228.8 689.7 1228.9 689.6 1464.1 693.1V694.1Z" fill="#006B93"/>
<path d="M917.478 40.8421L916.753 41.5308L992.717 121.498L993.442 120.81L917.478 40.8421Z" fill="#006B93"/>
<path d="M991 279.1H866.2H866.1L605 198.1L0.1 279.1L0 278.1L605.1 197.1H605.2L866.4 278.1H991V279.1Z" fill="#006B93"/>
<path d="M521.56 -0.0370078L520.64 0.354492L604.656 197.829L605.576 197.438L521.56 -0.0370078Z" fill="#00AAB8"/>
<path d="M767.5 504.7H766.5C766.5 444.8 783.7 386.8 816.3 336.9L817.1 337.4C784.6 387.2 767.5 445 767.5 504.7Z" fill="#30D8D8"/>
<path d="M818.8 338.5L814.6 335.8L815.1 335L819.3 337.7L818.8 338.5ZM843.8 305.3L840 302L840.7 301.2L844.5 304.5L843.8 305.3ZM873.2 275.8L869.9 272L870.7 271.3L874 275.1L873.2 275.8ZM906.2 250.5L903.4 246.3L904.2 245.7L906.9 249.9L906.2 250.5ZM942.4 230L940.2 225.5L941.1 225.1L943.3 229.6L942.4 230ZM981.1 214.6L979.6 209.8L980.6 209.5L982.1 214.3L981.1 214.6ZM1021.5 204.6L1020.6 199.7L1021.6 199.5L1022.4 204.4L1021.5 204.6ZM1062.9 200.3L1062.7 195.3H1063.7L1063.9 200.3H1062.9Z" fill="#F8CD61"/>
<path d="M1074.1 812.3C1029.1 812.3 985.7 802.8 945.2 784.1L945.6 783.2C986 801.9 1029.2 811.3 1074.1 811.3V812.3Z" fill="#F8CD61"/>
<path d="M997.185 120.021L991.903 116.971L988.853 122.253L994.135 125.303L997.185 120.021Z" fill="#00AAB8"/>
</g>
<defs>
<clipPath id="clip0_17_122">
<rect width="1562.1" height="1071.1" fill="white"/>
</clipPath>
</defs>
</svg>
